# xmcd
#
# Track frame offsets:
#	150
#	22718
#	45194
#	69784
#	88060
#	111260
#	126803
#	141420
#	161101
#	186788
#	207018
#	223166
#	245685
#	267601
#
# Disc length: 3891 seconds
#
# Revision: 0
# Processed by: cddbd v1.5.2PL0 Copyright (c) Steve Scherf et al.
# Submitted via: EasyCDDAExtractor 16.0.6.1
#
DISCID=c90f310e
DTITLE=Σαούλης Γιάννης - Σαν μαγεμένο-Γ. Σαούλης
DYEAR=1996
DGENRE=Ρεμπέτικη
TTITLE0=Ιωνία, το ω με ωμέγα [Γ. Σαούλη, στη μνήμη του Η. Βενέζη]
TTITLE1=Ο Καπετανάκης [Παραδοσιακό, διασκ. Γ. Σαούλη]
TTITLE2=Φοβάμαι μη σε χάσω [Γ. Παπαϊωάννου]
TTITLE3=Ξεμάγκας [Β. Παπάζογλου]
TTITLE4=Σάλα σάλα [Παραδοσιακό, διασκ. Γ. Σαούλη]
TTITLE5=Ο χορός της Αντρούλας [Γ. Σαούλη, στη μν. της μικρ.Αντρούλας,Φρεναρός 
TTITLE5=Κύπρου]
TTITLE6=Αχάριστη [Β. Τσιτσάνη]
TTITLE7=Απόκληρος [Β. Τσιτσάνη]
TTITLE8=Σαν μαγεμένο το μυαλό μου [Δ. Γκόγκου ή Μπαγιαντέρα]
TTITLE9=Χορός σε 5 όγδοα [Β. Τσιτσάνη]
TTITLE10=Οι μερακλήδες [Β. Τσιτσάνη]
TTITLE11=Ο αμανές της καλής νύχτας [Παραδοσιακό, διασκ. Γ. Σαούλη]
TTITLE12=Μανάκι μου [Παραδοσιακό, διασκ. Γ. Σαούλη]
TTITLE13=Μικρά Ασία, χαίρε [Γ. Σαούλη, τίτλος από έργο Ηλία Βενέζη]
EXTD=
EXTT0=
EXTT1=
EXTT2=
EXTT3=
EXTT4=
EXTT5=
EXTT6=
EXTT7=
EXTT8=
EXTT9=
EXTT10=
EXTT11=
EXTT12=
EXTT13=
PLAYORDER=
